<?xml version="1.0" encoding="UTF-8"?>
<!DOCTYPE svg PUBLIC "-//W3C//DTD SVG 1.1//EN" "http://www.w3.org/Graphics/SVG/1.1/DTD/svg11.dtd">
<svg xmlns="http://www.w3.org/2000/svg" version="1.1" width="114px" height="150px" style="shape-rendering:geometricPrecision; text-rendering:geometricPrecision; image-rendering:optimizeQuality; fill-rule:evenodd; clip-rule:evenodd" xmlns:xlink="http://www.w3.org/1999/xlink">
<g><path style="opacity:1" fill="#f63b12" d="M 27.5,-0.5 C 42.8333,-0.5 58.1667,-0.5 73.5,-0.5C 73.5,2.5 73.5,5.5 73.5,8.5C 82.5,8.5 91.5,8.5 100.5,8.5C 100.5,10.8333 100.5,13.1667 100.5,15.5C 94.642,15.1778 88.9753,15.5111 83.5,16.5C 80.0613,16.2529 76.728,16.5863 73.5,17.5C 71.059,16.2437 68.7257,16.2437 66.5,17.5C 59.4696,16.2003 52.4696,16.2003 45.5,17.5C 45.5,17.1667 45.5,16.8333 45.5,16.5C 37.0161,15.507 28.3494,15.1736 19.5,15.5C 19.5,13.1667 19.5,10.8333 19.5,8.5C 21.9479,7.52693 24.6146,7.1936 27.5,7.5C 27.5,4.83333 27.5,2.16667 27.5,-0.5 Z"/></g>
<g><path style="opacity:1" fill="#f4835d" d="M 73.5,-0.5 C 73.8333,-0.5 74.1667,-0.5 74.5,-0.5C 74.5,2.16667 74.5,4.83333 74.5,7.5C 83.5,7.5 92.5,7.5 101.5,7.5C 101.5,7.83333 101.5,8.16667 101.5,8.5C 101.167,8.5 100.833,8.5 100.5,8.5C 91.5,8.5 82.5,8.5 73.5,8.5C 73.5,5.5 73.5,2.5 73.5,-0.5 Z"/></g>
<g><path style="opacity:1" fill="#f7c590" d="M 101.5,7.5 C 102.765,8.51448 103.431,10.0145 103.5,12C 103.431,13.9855 102.765,15.4855 101.5,16.5C 101.5,13.8333 101.5,11.1667 101.5,8.5C 101.5,8.16667 101.5,7.83333 101.5,7.5 Z"/></g>
<g><path style="opacity:1" fill="#e2cba9" d="M 17.5,9.5 C 17.5,15.5 17.5,21.5 17.5,27.5C 14.5,27.5 11.5,27.5 8.5,27.5C 10.9479,26.5269 13.6146,26.1936 16.5,26.5C 16.1778,20.642 16.5111,14.9753 17.5,9.5 Z"/></g>
<g><path style="opacity:1" fill="#e6501b" d="M 19.5,8.5 C 19.5,10.8333 19.5,13.1667 19.5,15.5C 28.3494,15.1736 37.0161,15.507 45.5,16.5C 36.8333,16.5 28.1667,16.5 19.5,16.5C 18.5318,14.3926 18.1984,12.0593 18.5,9.5C 18.5,8.83333 18.8333,8.5 19.5,8.5 Z"/></g>
<g><path style="opacity:1" fill="#f55e38" d="M 100.5,8.5 C 100.833,8.5 101.167,8.5 101.5,8.5C 101.5,11.1667 101.5,13.8333 101.5,16.5C 95.5,16.5 89.5,16.5 83.5,16.5C 88.9753,15.5111 94.642,15.1778 100.5,15.5C 100.5,13.1667 100.5,10.8333 100.5,8.5 Z"/></g>
<g><path style="opacity:1" fill="#a56616" d="M 19.5,17.5 C 19.5,17.1667 19.5,16.8333 19.5,16.5C 28.1667,16.5 36.8333,16.5 45.5,16.5C 45.5,16.8333 45.5,17.1667 45.5,17.5C 45.5,17.8333 45.5,18.1667 45.5,18.5C 45.1667,18.5 44.8333,18.5 44.5,18.5C 36.3501,17.5073 28.0168,17.1739 19.5,17.5 Z"/></g>
<g><path style="opacity:1" fill="#f79147" d="M 66.5,17.5 C 66.1583,18.3382 65.4916,18.6716 64.5,18.5C 58.1973,17.2045 51.8639,17.2045 45.5,18.5C 45.5,18.1667 45.5,17.8333 45.5,17.5C 52.4696,16.2003 59.4696,16.2003 66.5,17.5 Z"/></g>
<g><path style="opacity:1" fill="#8d7318" d="M 19.5,17.5 C 28.0168,17.1739 36.3501,17.5073 44.5,18.5C 44.5774,19.7498 45.244,20.5831 46.5,21C 46.3103,22.8283 45.9769,24.6616 45.5,26.5C 42.5,26.5 39.5,26.5 36.5,26.5C 36.5,29.8333 36.5,33.1667 36.5,36.5C 39.6085,36.2641 42.6085,36.5975 45.5,37.5C 46.8333,38.1667 46.8333,38.8333 45.5,39.5C 44.5386,41.2646 44.2053,43.2646 44.5,45.5C 39.1667,45.5 33.8333,45.5 28.5,45.5C 28.8229,39.31 28.4896,33.31 27.5,27.5C 25.0521,26.5269 22.3854,26.1936 19.5,26.5C 19.5,23.5 19.5,20.5 19.5,17.5 Z"/></g>
<g><path style="opacity:1" fill="#fdb661" d="M 64.5,18.5 C 64.5,24.1667 64.5,29.8333 64.5,35.5C 67.6248,36.4794 70.9581,36.8128 74.5,36.5C 74.5,39.1667 74.5,41.8333 74.5,44.5C 71.5118,46.273 68.1785,46.9396 64.5,46.5C 64.5,49.5 64.5,52.5 64.5,55.5C 73.8333,55.5 83.1667,55.5 92.5,55.5C 92.5,58.1667 92.5,60.8333 92.5,63.5C 86.5,63.5 80.5,63.5 74.5,63.5C 74.8016,66.0593 74.4682,68.3926 73.5,70.5C 73.5,68.1667 73.5,65.8333 73.5,63.5C 64.8333,63.5 56.1667,63.5 47.5,63.5C 47.1667,63.5 46.8333,63.5 46.5,63.5C 43.1667,63.5 39.8333,63.5 36.5,63.5C 33.5,63.5 30.5,63.5 27.5,63.5C 27.5,60.8333 27.5,58.1667 27.5,55.5C 27.5,52.5 27.5,49.5 27.5,46.5C 33.5368,46.8293 39.5368,46.4959 45.5,45.5C 46.2483,43.5841 46.2483,41.5841 45.5,39.5C 46.8333,38.8333 46.8333,38.1667 45.5,37.5C 43.3647,35.631 40.6981,34.9644 37.5,35.5C 37.5,32.8333 37.5,30.1667 37.5,27.5C 40.3854,27.8064 43.0521,27.4731 45.5,26.5C 45.9769,24.6616 46.3103,22.8283 46.5,21C 45.244,20.5831 44.5774,19.7498 44.5,18.5C 44.8333,18.5 45.1667,18.5 45.5,18.5C 51.8639,17.2045 58.1973,17.2045 64.5,18.5 Z"/></g>
<g><path style="opacity:1" fill="#8f7319" d="M 73.5,17.5 C 73.5,18.1667 73.8333,18.5 74.5,18.5C 74.5,24.1667 74.5,29.8333 74.5,35.5C 71.1667,35.5 67.8333,35.5 64.5,35.5C 64.5,29.8333 64.5,24.1667 64.5,18.5C 65.4916,18.6716 66.1583,18.3382 66.5,17.5C 68.7257,16.2437 71.059,16.2437 73.5,17.5 Z"/></g>
<g><path style="opacity:1" fill="#feb661" d="M 83.5,16.5 C 83.5,20.1667 83.5,23.8333 83.5,27.5C 89.8333,27.5 96.1667,27.5 102.5,27.5C 102.194,30.3854 102.527,33.0521 103.5,35.5C 105.948,36.4731 108.615,36.8064 111.5,36.5C 111.5,39.1667 111.5,41.8333 111.5,44.5C 111.167,44.5 110.833,44.5 110.5,44.5C 108.062,44.1857 105.729,44.8523 103.5,46.5C 102.833,49.1667 102.167,51.8333 101.5,54.5C 101.82,51.1016 101.487,47.7683 100.5,44.5C 99.8933,44.6236 99.56,44.9569 99.5,45.5C 94.5,45.5 89.5,45.5 84.5,45.5C 84.5,42.1667 84.5,38.8333 84.5,35.5C 81.5,35.5 78.5,35.5 75.5,35.5C 75.8222,29.642 75.4889,23.9753 74.5,18.5C 73.8333,18.5 73.5,18.1667 73.5,17.5C 76.728,16.5863 80.0613,16.2529 83.5,16.5 Z"/></g>
<g><path style="opacity:1" fill="#ca9740" d="M 74.5,18.5 C 75.4889,23.9753 75.8222,29.642 75.5,35.5C 78.5,35.5 81.5,35.5 84.5,35.5C 84.5,38.8333 84.5,42.1667 84.5,45.5C 89.5,45.5 94.5,45.5 99.5,45.5C 94.3595,46.4881 89.0262,46.8214 83.5,46.5C 83.5,43.1667 83.5,39.8333 83.5,36.5C 80.8333,36.5 78.1667,36.5 75.5,36.5C 75.8064,39.3854 75.4731,42.0521 74.5,44.5C 74.5,41.8333 74.5,39.1667 74.5,36.5C 70.9581,36.8128 67.6248,36.4794 64.5,35.5C 67.8333,35.5 71.1667,35.5 74.5,35.5C 74.5,29.8333 74.5,24.1667 74.5,18.5 Z"/></g>
<g><path style="opacity:1" fill="#efcbac" d="M 83.5,16.5 C 89.5,16.5 95.5,16.5 101.5,16.5C 96.0247,17.4889 90.358,17.8222 84.5,17.5C 84.5,20.5 84.5,23.5 84.5,26.5C 90.69,26.1771 96.69,26.5104 102.5,27.5C 96.1667,27.5 89.8333,27.5 83.5,27.5C 83.5,23.8333 83.5,20.1667 83.5,16.5 Z"/></g>
<g><path style="opacity:1" fill="#927923" d="M 8.5,27.5 C 11.5,27.5 14.5,27.5 17.5,27.5C 17.3339,33.1764 17.5006,38.8431 18,44.5C 20.8263,46.3398 23.9929,47.0065 27.5,46.5C 27.5,49.5 27.5,52.5 27.5,55.5C 21.1667,55.5 14.8333,55.5 8.5,55.5C 8.5,46.1667 8.5,36.8333 8.5,27.5 Z"/></g>
<g><path style="opacity:1" fill="#f9b35f" d="M 17.5,9.5 C 17.8333,9.5 18.1667,9.5 18.5,9.5C 18.1984,12.0593 18.5318,14.3926 19.5,16.5C 19.5,16.8333 19.5,17.1667 19.5,17.5C 19.5,20.5 19.5,23.5 19.5,26.5C 22.3854,26.1936 25.0521,26.5269 27.5,27.5C 27.5,33.8333 27.5,40.1667 27.5,46.5C 23.9929,47.0065 20.8263,46.3398 18,44.5C 17.5006,38.8431 17.3339,33.1764 17.5,27.5C 17.5,21.5 17.5,15.5 17.5,9.5 Z"/></g>
<g><path style="opacity:1" fill="#d09b44" d="M 45.5,26.5 C 43.0521,27.4731 40.3854,27.8064 37.5,27.5C 37.5,30.1667 37.5,32.8333 37.5,35.5C 40.6981,34.9644 43.3647,35.631 45.5,37.5C 42.6085,36.5975 39.6085,36.2641 36.5,36.5C 36.5,33.1667 36.5,29.8333 36.5,26.5C 39.5,26.5 42.5,26.5 45.5,26.5 Z"/></g>
<g><path style="opacity:1" fill="#91761b" d="M 99.5,45.5 C 99.56,44.9569 99.8933,44.6236 100.5,44.5C 101.487,47.7683 101.82,51.1016 101.5,54.5C 98.2869,54.19 95.2869,54.5233 92.5,55.5C 83.1667,55.5 73.8333,55.5 64.5,55.5C 64.5,52.5 64.5,49.5 64.5,46.5C 68.1785,46.9396 71.5118,46.273 74.5,44.5C 75.4731,42.0521 75.8064,39.3854 75.5,36.5C 78.1667,36.5 80.8333,36.5 83.5,36.5C 83.5,39.8333 83.5,43.1667 83.5,46.5C 89.0262,46.8214 94.3595,46.4881 99.5,45.5 Z"/></g>
<g><path style="opacity:1" fill="#f1d1ad" d="M 103.5,35.5 C 106.5,35.5 109.5,35.5 112.5,35.5C 112.81,38.7131 112.477,41.7131 111.5,44.5C 111.5,41.8333 111.5,39.1667 111.5,36.5C 108.615,36.8064 105.948,36.4731 103.5,35.5 Z"/></g>
<g><path style="opacity:1" fill="#b28930" d="M 27.5,27.5 C 28.4896,33.31 28.8229,39.31 28.5,45.5C 33.8333,45.5 39.1667,45.5 44.5,45.5C 44.2053,43.2646 44.5386,41.2646 45.5,39.5C 46.2483,41.5841 46.2483,43.5841 45.5,45.5C 39.5368,46.4959 33.5368,46.8293 27.5,46.5C 27.5,40.1667 27.5,33.8333 27.5,27.5 Z"/></g>
<g><path style="opacity:1" fill="#f1d2af" d="M 110.5,44.5 C 108.721,46.3435 106.388,47.0102 103.5,46.5C 105.729,44.8523 108.062,44.1857 110.5,44.5 Z"/></g>
<g><path style="opacity:1" fill="#cdb88a" d="M 103.5,46.5 C 103.5,49.5 103.5,52.5 103.5,55.5C 99.8333,55.5 96.1667,55.5 92.5,55.5C 95.2869,54.5233 98.2869,54.19 101.5,54.5C 102.167,51.8333 102.833,49.1667 103.5,46.5 Z"/></g>
<g><path style="opacity:1" fill="#b88632" d="M 47.5,63.5 C 56.1667,63.5 64.8333,63.5 73.5,63.5C 73.5,65.8333 73.5,68.1667 73.5,70.5C 73.8333,71.8333 74.1667,73.1667 74.5,74.5C 71.1667,74.5 67.8333,74.5 64.5,74.5C 66.9479,73.5269 69.6146,73.1936 72.5,73.5C 72.5,70.5 72.5,67.5 72.5,64.5C 63.9832,64.8261 55.6499,64.4927 47.5,63.5 Z"/></g>
<g><path style="opacity:1" fill="#e2ccad" d="M 92.5,63.5 C 87.0247,64.4889 81.358,64.8222 75.5,64.5C 75.5,67.5 75.5,70.5 75.5,73.5C 84.3494,73.1736 93.0161,73.507 101.5,74.5C 92.8333,74.5 84.1667,74.5 75.5,74.5C 75.1667,74.5 74.8333,74.5 74.5,74.5C 74.1667,73.1667 73.8333,71.8333 73.5,70.5C 74.4682,68.3926 74.8016,66.0593 74.5,63.5C 80.5,63.5 86.5,63.5 92.5,63.5 Z"/></g>
<g><path style="opacity:1" fill="#8e731a" d="M 27.5,63.5 C 30.5,63.5 33.5,63.5 36.5,63.5C 36.5,72.8333 36.5,82.1667 36.5,91.5C 33.5,91.5 30.5,91.5 27.5,91.5C 27.5,95.1667 27.5,98.8333 27.5,102.5C 18.6614,103.991 15.328,100.325 17.5,91.5C 11.8333,91.5 6.16667,91.5 0.5,91.5C 0.5,88.8333 0.5,86.1667 0.5,83.5C 3.38544,83.8064 6.0521,83.4731 8.5,82.5C 8.5,79.8333 8.5,77.1667 8.5,74.5C 12.0122,75.0545 15.0122,74.3878 17.5,72.5C 19.369,70.3647 20.0356,67.6981 19.5,64.5C 21.9479,63.5269 24.6146,63.1936 27.5,63.5 Z"/></g>
<g><path style="opacity:1" fill="#e54d18" d="M 36.5,63.5 C 39.8333,63.5 43.1667,63.5 46.5,63.5C 46.5,63.8333 46.5,64.1667 46.5,64.5C 43.5,64.5 40.5,64.5 37.5,64.5C 37.5,73.5 37.5,82.5 37.5,91.5C 37.1667,91.5 36.8333,91.5 36.5,91.5C 36.5,82.1667 36.5,72.8333 36.5,63.5 Z"/></g>
<g><path style="opacity:1" fill="#f53b11" d="M 46.5,64.5 C 45.3819,70.084 45.2153,75.7507 46,81.5C 52.0758,82.4764 58.2424,82.8097 64.5,82.5C 64.5,79.8333 64.5,77.1667 64.5,74.5C 67.8333,74.5 71.1667,74.5 74.5,74.5C 74.8333,74.5 75.1667,74.5 75.5,74.5C 75.5,80.1667 75.5,85.8333 75.5,91.5C 78.1667,91.5 80.8333,91.5 83.5,91.5C 83.5,98.1667 83.5,104.833 83.5,111.5C 86.5,111.5 89.5,111.5 92.5,111.5C 92.5,114.833 92.5,118.167 92.5,121.5C 91.5269,123.948 91.1936,126.615 91.5,129.5C 83.1667,129.5 74.8333,129.5 66.5,129.5C 65.8333,129.167 65.1667,128.833 64.5,128.5C 64.5,125.5 64.5,122.5 64.5,119.5C 58.8333,119.5 53.1667,119.5 47.5,119.5C 46.5041,119.414 45.6708,119.748 45,120.5C 44.502,123.482 44.3354,126.482 44.5,129.5C 41.8333,129.5 39.1667,129.5 36.5,129.5C 30.8333,129.5 25.1667,129.5 19.5,129.5C 20.069,125.671 19.4023,122.337 17.5,119.5C 17.5,116.5 17.5,113.5 17.5,110.5C 20.8333,110.5 24.1667,110.5 27.5,110.5C 28.4896,104.69 28.8229,98.69 28.5,92.5C 31.1667,92.5 33.8333,92.5 36.5,92.5C 36.5,95.8333 36.5,99.1667 36.5,102.5C 39.5719,102.817 42.5719,102.484 45.5,101.5C 46.2483,99.5841 46.2483,97.5841 45.5,95.5C 46.8333,94.8333 46.8333,94.1667 45.5,93.5C 43.3647,91.631 40.6981,90.9644 37.5,91.5C 37.5,82.5 37.5,73.5 37.5,64.5C 40.5,64.5 43.5,64.5 46.5,64.5 Z"/></g>
<g><path style="opacity:1" fill="#8d7217" d="M 46.5,63.5 C 46.8333,63.5 47.1667,63.5 47.5,63.5C 55.6499,64.4927 63.9832,64.8261 72.5,64.5C 72.5,67.5 72.5,70.5 72.5,73.5C 69.6146,73.1936 66.9479,73.5269 64.5,74.5C 64.5,77.1667 64.5,79.8333 64.5,82.5C 58.2424,82.8097 52.0758,82.4764 46,81.5C 45.2153,75.7507 45.3819,70.084 46.5,64.5C 46.5,64.1667 46.5,63.8333 46.5,63.5 Z"/></g>
<g><path style="opacity:1" fill="#d4a14f" d="M 19.5,64.5 C 20.0356,67.6981 19.369,70.3647 17.5,72.5C 17.5,70.1667 17.5,67.8333 17.5,65.5C 18.1667,65.1667 18.8333,64.8333 19.5,64.5 Z"/></g>
<g><path style="opacity:1" fill="#d1c4a4" d="M 17.5,65.5 C 17.5,67.8333 17.5,70.1667 17.5,72.5C 15.0122,74.3878 12.0122,75.0545 8.5,74.5C 10.9479,73.5269 13.6146,73.1936 16.5,73.5C 16.1936,70.6146 16.5269,67.9479 17.5,65.5 Z"/></g>
<g><path style="opacity:1" fill="#8e741a" d="M 75.5,74.5 C 84.1667,74.5 92.8333,74.5 101.5,74.5C 101.223,77.4475 101.556,80.2809 102.5,83C 105.482,83.498 108.482,83.6646 111.5,83.5C 111.5,86.1667 111.5,88.8333 111.5,91.5C 105.824,91.3339 100.157,91.5006 94.5,92C 94,92.5 93.5,93 93,93.5C 92.502,96.4816 92.3354,99.4816 92.5,102.5C 89.8333,102.5 87.1667,102.5 84.5,102.5C 84.815,98.6286 84.4816,94.9619 83.5,91.5C 80.8333,91.5 78.1667,91.5 75.5,91.5C 75.5,85.8333 75.5,80.1667 75.5,74.5 Z"/></g>
<g><path style="opacity:1" fill="#d8b781" d="M 101.5,74.5 C 103.369,76.6353 104.036,79.3019 103.5,82.5C 106.385,82.1936 109.052,82.5269 111.5,83.5C 108.482,83.6646 105.482,83.498 102.5,83C 101.556,80.2809 101.223,77.4475 101.5,74.5 Z"/></g>
<g><path style="opacity:1" fill="#b1a26d" d="M -0.5,82.5 C 2.5,82.5 5.5,82.5 8.5,82.5C 6.0521,83.4731 3.38544,83.8064 0.5,83.5C 0.5,86.1667 0.5,88.8333 0.5,91.5C 0.166667,91.5 -0.166667,91.5 -0.5,91.5C -0.5,88.5 -0.5,85.5 -0.5,82.5 Z"/></g>
<g><path style="opacity:1" fill="#fcb560" d="M 0.5,91.5 C 6.16667,91.5 11.8333,91.5 17.5,91.5C 15.328,100.325 18.6614,103.991 27.5,102.5C 27.5,105.167 27.5,107.833 27.5,110.5C 24.1667,110.5 20.8333,110.5 17.5,110.5C 17.5,113.5 17.5,116.5 17.5,119.5C 11.8333,119.5 6.16667,119.5 0.5,119.5C 0.5,110.167 0.5,100.833 0.5,91.5 Z"/></g>
<g><path style="opacity:1" fill="#d9541a" d="M 36.5,91.5 C 36.5,91.8333 36.5,92.1667 36.5,92.5C 33.8333,92.5 31.1667,92.5 28.5,92.5C 28.8229,98.69 28.4896,104.69 27.5,110.5C 27.5,107.833 27.5,105.167 27.5,102.5C 27.5,98.8333 27.5,95.1667 27.5,91.5C 30.5,91.5 33.5,91.5 36.5,91.5 Z"/></g>
<g><path style="opacity:1" fill="#feb561" d="M 45.5,93.5 C 46.8333,94.1667 46.8333,94.8333 45.5,95.5C 44.5386,97.2646 44.2053,99.2646 44.5,101.5C 42.1667,101.5 39.8333,101.5 37.5,101.5C 37.5,98.5 37.5,95.5 37.5,92.5C 40.2788,92.2786 42.9455,92.612 45.5,93.5 Z"/></g>
<g><path style="opacity:1" fill="#fc9148" d="M 73.5,93.5 C 70.9455,92.612 68.2788,92.2786 65.5,92.5C 65.5,95.5 65.5,98.5 65.5,101.5C 68.1667,101.5 70.8333,101.5 73.5,101.5C 70.7131,102.477 67.7131,102.81 64.5,102.5C 64.5,98.8333 64.5,95.1667 64.5,91.5C 68.0122,90.9455 71.0122,91.6122 73.5,93.5 Z"/></g>
<g><path style="opacity:1" fill="#feb561" d="M 73.5,93.5 C 74.7671,96.0613 74.7671,98.728 73.5,101.5C 70.8333,101.5 68.1667,101.5 65.5,101.5C 65.5,98.5 65.5,95.5 65.5,92.5C 68.2788,92.2786 70.9455,92.612 73.5,93.5 Z"/></g>
<g><path style="opacity:1" fill="#fdb561" d="M 111.5,91.5 C 111.5,100.833 111.5,110.167 111.5,119.5C 105.642,119.178 99.9753,119.511 94.5,120.5C 93.8333,120.833 93.1667,121.167 92.5,121.5C 92.5,118.167 92.5,114.833 92.5,111.5C 90.0521,110.527 87.3854,110.194 84.5,110.5C 84.5,107.833 84.5,105.167 84.5,102.5C 87.1667,102.5 89.8333,102.5 92.5,102.5C 92.3354,99.4816 92.502,96.4816 93,93.5C 93.5,93 94,92.5 94.5,92C 100.157,91.5006 105.824,91.3339 111.5,91.5 Z"/></g>
<g><path style="opacity:1" fill="#fc9048" d="M 36.5,91.5 C 36.8333,91.5 37.1667,91.5 37.5,91.5C 40.6981,90.9644 43.3647,91.631 45.5,93.5C 42.9455,92.612 40.2788,92.2786 37.5,92.5C 37.5,95.5 37.5,98.5 37.5,101.5C 39.8333,101.5 42.1667,101.5 44.5,101.5C 44.2053,99.2646 44.5386,97.2646 45.5,95.5C 46.2483,97.5841 46.2483,99.5841 45.5,101.5C 42.5719,102.484 39.5719,102.817 36.5,102.5C 36.5,99.1667 36.5,95.8333 36.5,92.5C 36.5,92.1667 36.5,91.8333 36.5,91.5 Z"/></g>
<g><path style="opacity:1" fill="#e67532" d="M 83.5,91.5 C 84.4816,94.9619 84.815,98.6286 84.5,102.5C 84.5,105.167 84.5,107.833 84.5,110.5C 87.3854,110.194 90.0521,110.527 92.5,111.5C 89.5,111.5 86.5,111.5 83.5,111.5C 83.5,104.833 83.5,98.1667 83.5,91.5 Z"/></g>
<g><path style="opacity:1" fill="#eeca9e" d="M -0.5,91.5 C -0.166667,91.5 0.166667,91.5 0.5,91.5C 0.5,100.833 0.5,110.167 0.5,119.5C 6.16667,119.5 11.8333,119.5 17.5,119.5C 18.4227,123.064 18.756,126.731 18.5,130.5C 15.1667,130.5 11.8333,130.5 8.5,130.5C 10.9479,129.527 13.6146,129.194 16.5,129.5C 16.5,126.5 16.5,123.5 16.5,120.5C 10.8333,120.5 5.16667,120.5 -0.5,120.5C -0.5,110.833 -0.5,101.167 -0.5,91.5 Z"/></g>
<g><path style="opacity:1" fill="#ecaa9c" d="M 47.5,120.5 C 47.5,120.167 47.5,119.833 47.5,119.5C 53.1667,119.5 58.8333,119.5 64.5,119.5C 64.5,122.5 64.5,125.5 64.5,128.5C 63.5269,126.052 63.1936,123.385 63.5,120.5C 58.1667,120.5 52.8333,120.5 47.5,120.5 Z"/></g>
<g><path style="opacity:1" fill="#de591e" d="M 17.5,119.5 C 19.4023,122.337 20.069,125.671 19.5,129.5C 25.1667,129.5 30.8333,129.5 36.5,129.5C 36.5,129.833 36.5,130.167 36.5,130.5C 30.5,130.5 24.5,130.5 18.5,130.5C 18.756,126.731 18.4227,123.064 17.5,119.5 Z"/></g>
<g><path style="opacity:1" fill="#f17658" d="M 47.5,119.5 C 47.5,119.833 47.5,120.167 47.5,120.5C 46.8826,120.611 46.3826,120.944 46,121.5C 45.502,124.482 45.3354,127.482 45.5,130.5C 42.5,130.5 39.5,130.5 36.5,130.5C 36.5,130.167 36.5,129.833 36.5,129.5C 39.1667,129.5 41.8333,129.5 44.5,129.5C 44.3354,126.482 44.502,123.482 45,120.5C 45.6708,119.748 46.5041,119.414 47.5,119.5 Z"/></g>
<g><path style="opacity:1" fill="#df582c" d="M 92.5,121.5 C 92.5,124.5 92.5,127.5 92.5,130.5C 86.8333,130.5 81.1667,130.5 75.5,130.5C 72.2869,130.81 69.2869,130.477 66.5,129.5C 74.8333,129.5 83.1667,129.5 91.5,129.5C 91.1936,126.615 91.5269,123.948 92.5,121.5 Z"/></g>
<g><path style="opacity:1" fill="#d5bfa7" d="M 94.5,120.5 C 93.701,123.43 93.3677,126.43 93.5,129.5C 96.3854,129.194 99.0521,129.527 101.5,130.5C 98.5,130.5 95.5,130.5 92.5,130.5C 92.5,127.5 92.5,124.5 92.5,121.5C 93.1667,121.167 93.8333,120.833 94.5,120.5 Z"/></g>
<g><path style="opacity:1" fill="#8d741a" d="M 8.5,130.5 C 11.8333,130.5 15.1667,130.5 18.5,130.5C 24.5,130.5 30.5,130.5 36.5,130.5C 36.5,136.167 36.5,141.833 36.5,147.5C 24.5,147.5 12.5,147.5 0.5,147.5C 0.5,144.833 0.5,142.167 0.5,139.5C 3.38544,139.806 6.0521,139.473 8.5,138.5C 8.5,135.833 8.5,133.167 8.5,130.5 Z"/></g>
<g><path style="opacity:1" fill="#8d7319" d="M 75.5,130.5 C 81.1667,130.5 86.8333,130.5 92.5,130.5C 95.5,130.5 98.5,130.5 101.5,130.5C 100.964,133.698 101.631,136.365 103.5,138.5C 105.948,139.473 108.615,139.806 111.5,139.5C 111.5,142.167 111.5,144.833 111.5,147.5C 99.5,147.5 87.5,147.5 75.5,147.5C 75.5,141.833 75.5,136.167 75.5,130.5 Z"/></g>
<g><path style="opacity:1" fill="#f5c58d" d="M 101.5,130.5 C 103.369,132.635 104.036,135.302 103.5,138.5C 101.631,136.365 100.964,133.698 101.5,130.5 Z"/></g>
<g><path style="opacity:1" fill="#c0b48d" d="M -0.5,138.5 C 2.5,138.5 5.5,138.5 8.5,138.5C 6.0521,139.473 3.38544,139.806 0.5,139.5C 0.5,142.167 0.5,144.833 0.5,147.5C 12.5,147.5 24.5,147.5 36.5,147.5C 24.3446,148.495 12.0113,148.829 -0.5,148.5C -0.5,145.167 -0.5,141.833 -0.5,138.5 Z"/></g>
</svg>
