<?xml version="1.0" encoding="UTF-8"?>
<!DOCTYPE svg PUBLIC "-//W3C//DTD SVG 1.1//EN" "http://www.w3.org/Graphics/SVG/1.1/DTD/svg11.dtd">
<svg xmlns="http://www.w3.org/2000/svg" version="1.1" width="149px" height="150px" style="shape-rendering:geometricPrecision; text-rendering:geometricPrecision; image-rendering:optimizeQuality; fill-rule:evenodd; clip-rule:evenodd" xmlns:xlink="http://www.w3.org/1999/xlink">
<g><path style="opacity:1" fill="#fcb35f" d="M 120.5,-0.5 C 129.5,-0.5 138.5,-0.5 147.5,-0.5C 147.5,8.83333 147.5,18.1667 147.5,27.5C 138.5,27.5 129.5,27.5 120.5,27.5C 117.5,27.5 114.5,27.5 111.5,27.5C 117.645,26.5098 123.978,26.1765 130.5,26.5C 131.006,22.9929 130.34,19.8263 128.5,17C 123.038,17.3373 117.538,17.8373 112,18.5C 108.424,18.4848 105.258,17.8182 102.5,16.5C 108.5,16.5 114.5,16.5 120.5,16.5C 120.5,10.8333 120.5,5.16667 120.5,-0.5 Z"/></g>
<g><path style="opacity:1" fill="#f63d12" d="M 101.5,16.5 C 101.833,16.5 102.167,16.5 102.5,16.5C 105.258,17.8182 108.424,18.4848 112,18.5C 117.538,17.8373 123.038,17.3373 128.5,17C 130.34,19.8263 131.006,22.9929 130.5,26.5C 123.978,26.1765 117.645,26.5098 111.5,27.5C 108.5,27.5 105.5,27.5 102.5,27.5C 99.1667,27.5 95.8333,27.5 92.5,27.5C 85.8333,27.5 79.1667,27.5 72.5,27.5C 63.8333,27.5 55.1667,27.5 46.5,27.5C 46.5,24.5 46.5,21.5 46.5,18.5C 50.0122,19.0545 53.0122,18.3878 55.5,16.5C 55.5,13.8333 55.5,11.1667 55.5,8.5C 70.5,8.5 85.5,8.5 100.5,8.5C 100.194,11.3854 100.527,14.0521 101.5,16.5 Z"/></g>
<g><path style="opacity:1" fill="#ef9682" d="M 101.5,16.5 C 100.527,14.0521 100.194,11.3854 100.5,8.5C 85.5,8.5 70.5,8.5 55.5,8.5C 55.5,11.1667 55.5,13.8333 55.5,16.5C 55.1667,16.5 54.8333,16.5 54.5,16.5C 54.5,13.5 54.5,10.5 54.5,7.5C 70.1667,7.5 85.8333,7.5 101.5,7.5C 101.5,10.5 101.5,13.5 101.5,16.5 Z"/></g>
<g><path style="opacity:1" fill="#fb9c59" d="M 54.5,16.5 C 54.8333,16.5 55.1667,16.5 55.5,16.5C 53.0122,18.3878 50.0122,19.0545 46.5,18.5C 48.6353,16.631 51.3019,15.9644 54.5,16.5 Z"/></g>
<g><path style="opacity:1" fill="#8d7318" d="M 46.5,27.5 C 55.1667,27.5 63.8333,27.5 72.5,27.5C 72.5,30.1667 72.5,32.8333 72.5,35.5C 69.5,35.5 66.5,35.5 63.5,35.5C 63.19,38.7131 63.5233,41.7131 64.5,44.5C 66.8002,46.2018 69.4669,46.8685 72.5,46.5C 72.5,49.1667 72.5,51.8333 72.5,54.5C 66.8333,54.5 61.1667,54.5 55.5,54.5C 55.5,48.1667 55.5,41.8333 55.5,35.5C 52.5,35.5 49.5,35.5 46.5,35.5C 46.5,32.8333 46.5,30.1667 46.5,27.5 Z"/></g>
<g><path style="opacity:1" fill="#fcb560" d="M 72.5,27.5 C 79.1667,27.5 85.8333,27.5 92.5,27.5C 92.3339,33.1764 92.5006,38.8431 93,44.5C 95.1062,46.291 97.6062,46.9577 100.5,46.5C 100.627,48.9154 100.793,51.2487 101,53.5C 98.0614,54.1281 95.2281,54.7948 92.5,55.5C 91.5233,58.2869 91.19,61.2869 91.5,64.5C 100.833,64.5 110.167,64.5 119.5,64.5C 119.5,67.1667 119.5,69.8333 119.5,72.5C 122.5,72.5 125.5,72.5 128.5,72.5C 128.5,72.8333 128.5,73.1667 128.5,73.5C 125.287,73.19 122.287,73.5233 119.5,74.5C 116.833,74.5 114.167,74.5 111.5,74.5C 111.167,74.5 110.833,74.5 110.5,74.5C 107.833,74.5 105.167,74.5 102.5,74.5C 92.8333,74.5 83.1667,74.5 73.5,74.5C 73.1667,74.5 72.8333,74.5 72.5,74.5C 69.5,73.1667 66.5,73.1667 63.5,74.5C 60.1667,74.5 56.8333,74.5 53.5,74.5C 53.5,74.1667 53.5,73.8333 53.5,73.5C 53.5,72.8333 53.8333,72.5 54.5,72.5C 55.4767,69.7131 55.81,66.7131 55.5,63.5C 55.5,60.8333 55.5,58.1667 55.5,55.5C 61.5,55.5 67.5,55.5 73.5,55.5C 73.81,52.2869 73.4767,49.2869 72.5,46.5C 69.4669,46.8685 66.8002,46.2018 64.5,44.5C 64.5,41.8333 64.5,39.1667 64.5,36.5C 67.3854,36.8064 70.0521,36.4731 72.5,35.5C 72.5,32.8333 72.5,30.1667 72.5,27.5 Z"/></g>
<g><path style="opacity:1" fill="#fbb561" d="M 102.5,27.5 C 105.5,27.5 108.5,27.5 111.5,27.5C 111.5,30.1667 111.5,32.8333 111.5,35.5C 114.5,35.5 117.5,35.5 120.5,35.5C 120.253,38.9387 120.586,42.272 121.5,45.5C 126.975,46.4889 132.642,46.8222 138.5,46.5C 138.5,49.1667 138.5,51.8333 138.5,54.5C 129.5,54.5 120.5,54.5 111.5,54.5C 111.806,51.6146 111.473,48.9479 110.5,46.5C 107.833,46.5 105.167,46.5 102.5,46.5C 102.5,40.1667 102.5,33.8333 102.5,27.5 Z"/></g>
<g><path style="opacity:1" fill="#8c7318" d="M 120.5,27.5 C 129.5,27.5 138.5,27.5 147.5,27.5C 147.5,36.5 147.5,45.5 147.5,54.5C 144.833,54.5 142.167,54.5 139.5,54.5C 139.5,51.5 139.5,48.5 139.5,45.5C 133.5,45.5 127.5,45.5 121.5,45.5C 120.586,42.272 120.253,38.9387 120.5,35.5C 120.5,32.8333 120.5,30.1667 120.5,27.5 Z"/></g>
<g><path style="opacity:1" fill="#cab78a" d="M 147.5,-0.5 C 147.833,-0.5 148.167,-0.5 148.5,-0.5C 148.5,18.1667 148.5,36.8333 148.5,55.5C 145.5,55.5 142.5,55.5 139.5,55.5C 139.5,55.1667 139.5,54.8333 139.5,54.5C 142.167,54.5 144.833,54.5 147.5,54.5C 147.5,45.5 147.5,36.5 147.5,27.5C 147.5,18.1667 147.5,8.83333 147.5,-0.5 Z"/></g>
<g><path style="opacity:1" fill="#b7aa7b" d="M 44.5,35.5 C 44.5,35.8333 44.5,36.1667 44.5,36.5C 41.8333,36.5 39.1667,36.5 36.5,36.5C 36.5,45.5 36.5,54.5 36.5,63.5C 35.5064,54.3483 35.1731,45.015 35.5,35.5C 38.5,35.5 41.5,35.5 44.5,35.5 Z"/></g>
<g><path style="opacity:1" fill="#8c7318" d="M 44.5,36.5 C 44.5,42.8333 44.5,49.1667 44.5,55.5C 47.8333,55.5 51.1667,55.5 54.5,55.5C 54.5,58.1667 54.5,60.8333 54.5,63.5C 48.5,63.5 42.5,63.5 36.5,63.5C 36.5,54.5 36.5,45.5 36.5,36.5C 39.1667,36.5 41.8333,36.5 44.5,36.5 Z"/></g>
<g><path style="opacity:1" fill="#fdb664" d="M 46.5,18.5 C 46.5,21.5 46.5,24.5 46.5,27.5C 46.5,30.1667 46.5,32.8333 46.5,35.5C 48.9479,36.4731 51.6146,36.8064 54.5,36.5C 54.5,42.5 54.5,48.5 54.5,54.5C 51.5,54.5 48.5,54.5 45.5,54.5C 45.8235,47.9779 45.4902,41.6446 44.5,35.5C 43.8833,29.4018 44.55,23.7351 46.5,18.5 Z"/></g>
<g><path style="opacity:1" fill="#c7963e" d="M 72.5,35.5 C 70.0521,36.4731 67.3854,36.8064 64.5,36.5C 64.5,39.1667 64.5,41.8333 64.5,44.5C 63.5233,41.7131 63.19,38.7131 63.5,35.5C 66.5,35.5 69.5,35.5 72.5,35.5 Z"/></g>
<g><path style="opacity:1" fill="#8e741a" d="M 92.5,27.5 C 95.8333,27.5 99.1667,27.5 102.5,27.5C 102.5,33.8333 102.5,40.1667 102.5,46.5C 105.167,46.5 107.833,46.5 110.5,46.5C 110.5,49.5 110.5,52.5 110.5,55.5C 119.833,55.5 129.167,55.5 138.5,55.5C 138.5,58.1667 138.5,60.8333 138.5,63.5C 135.833,63.5 133.167,63.5 130.5,63.5C 128.631,65.6353 127.964,68.3019 128.5,71.5C 125.833,71.5 123.167,71.5 120.5,71.5C 120.5,68.8333 120.5,66.1667 120.5,63.5C 111.167,63.5 101.833,63.5 92.5,63.5C 92.5,60.8333 92.5,58.1667 92.5,55.5C 95.2281,54.7948 98.0614,54.1281 101,53.5C 100.793,51.2487 100.627,48.9154 100.5,46.5C 97.6062,46.9577 95.1062,46.291 93,44.5C 92.5006,38.8431 92.3339,33.1764 92.5,27.5 Z"/></g>
<g><path style="opacity:1" fill="#cc9941" d="M 44.5,35.5 C 45.4902,41.6446 45.8235,47.9779 45.5,54.5C 48.5,54.5 51.5,54.5 54.5,54.5C 54.5,48.5 54.5,42.5 54.5,36.5C 51.6146,36.8064 48.9479,36.4731 46.5,35.5C 49.5,35.5 52.5,35.5 55.5,35.5C 55.5,41.8333 55.5,48.1667 55.5,54.5C 61.1667,54.5 66.8333,54.5 72.5,54.5C 72.5,51.8333 72.5,49.1667 72.5,46.5C 73.4767,49.2869 73.81,52.2869 73.5,55.5C 67.5,55.5 61.5,55.5 55.5,55.5C 55.5,58.1667 55.5,60.8333 55.5,63.5C 55.1667,63.5 54.8333,63.5 54.5,63.5C 54.5,60.8333 54.5,58.1667 54.5,55.5C 51.1667,55.5 47.8333,55.5 44.5,55.5C 44.5,49.1667 44.5,42.8333 44.5,36.5C 44.5,36.1667 44.5,35.8333 44.5,35.5 Z"/></g>
<g><path style="opacity:1" fill="#c1923b" d="M 121.5,45.5 C 127.5,45.5 133.5,45.5 139.5,45.5C 139.5,48.5 139.5,51.5 139.5,54.5C 139.5,54.8333 139.5,55.1667 139.5,55.5C 139.167,55.5 138.833,55.5 138.5,55.5C 129.167,55.5 119.833,55.5 110.5,55.5C 110.5,52.5 110.5,49.5 110.5,46.5C 111.473,48.9479 111.806,51.6146 111.5,54.5C 120.5,54.5 129.5,54.5 138.5,54.5C 138.5,51.8333 138.5,49.1667 138.5,46.5C 132.642,46.8222 126.975,46.4889 121.5,45.5 Z"/></g>
<g><path style="opacity:1" fill="#cec09e" d="M 36.5,63.5 C 42.5,63.5 48.5,63.5 54.5,63.5C 54.8333,63.5 55.1667,63.5 55.5,63.5C 55.81,66.7131 55.4767,69.7131 54.5,72.5C 54.5,69.8333 54.5,67.1667 54.5,64.5C 48.31,64.8229 42.31,64.4896 36.5,63.5 Z"/></g>
<g><path style="opacity:1" fill="#ce9b46" d="M 92.5,55.5 C 92.5,58.1667 92.5,60.8333 92.5,63.5C 101.833,63.5 111.167,63.5 120.5,63.5C 120.5,66.1667 120.5,68.8333 120.5,71.5C 123.167,71.5 125.833,71.5 128.5,71.5C 127.964,68.3019 128.631,65.6353 130.5,63.5C 130.5,63.8333 130.5,64.1667 130.5,64.5C 131.036,67.6981 130.369,70.3647 128.5,72.5C 125.5,72.5 122.5,72.5 119.5,72.5C 119.5,69.8333 119.5,67.1667 119.5,64.5C 110.167,64.5 100.833,64.5 91.5,64.5C 91.19,61.2869 91.5233,58.2869 92.5,55.5 Z"/></g>
<g><path style="opacity:1" fill="#bdb187" d="M 138.5,55.5 C 138.833,55.5 139.167,55.5 139.5,55.5C 139.5,58.5 139.5,61.5 139.5,64.5C 136.5,64.5 133.5,64.5 130.5,64.5C 130.5,64.1667 130.5,63.8333 130.5,63.5C 133.167,63.5 135.833,63.5 138.5,63.5C 138.5,60.8333 138.5,58.1667 138.5,55.5 Z"/></g>
<g><path style="opacity:1" fill="#c5ba97" d="M 53.5,73.5 C 53.5,73.8333 53.5,74.1667 53.5,74.5C 41.5,74.5 29.5,74.5 17.5,74.5C 17.8064,77.3854 17.4731,80.0521 16.5,82.5C 16.5,79.5 16.5,76.5 16.5,73.5C 28.8333,73.5 41.1667,73.5 53.5,73.5 Z"/></g>
<g><path style="opacity:1" fill="#8d7318" d="M 53.5,74.5 C 56.8333,74.5 60.1667,74.5 63.5,74.5C 63.5,77.5 63.5,80.5 63.5,83.5C 66.5,83.5 69.5,83.5 72.5,83.5C 72.5,89.5 72.5,95.5 72.5,101.5C 69.5,101.5 66.5,101.5 63.5,101.5C 63.5,104.5 63.5,107.5 63.5,110.5C 60.8333,110.5 58.1667,110.5 55.5,110.5C 55.5,107.833 55.5,105.167 55.5,102.5C 49.1667,102.5 42.8333,102.5 36.5,102.5C 36.1667,102.5 35.8333,102.5 35.5,102.5C 29.69,101.51 23.69,101.177 17.5,101.5C 17.5,98.1667 17.5,94.8333 17.5,91.5C 14.5,91.5 11.5,91.5 8.5,91.5C 8.5,88.8333 8.5,86.1667 8.5,83.5C 11.3854,83.8064 14.0521,83.4731 16.5,82.5C 17.4731,80.0521 17.8064,77.3854 17.5,74.5C 29.5,74.5 41.5,74.5 53.5,74.5 Z"/></g>
<g><path style="opacity:1" fill="#8d7218" d="M 73.5,74.5 C 83.1667,74.5 92.8333,74.5 102.5,74.5C 102.771,76.8211 102.104,78.8211 100.5,80.5C 101.243,81.1818 101.909,81.8485 102.5,82.5C 104.948,83.4731 107.615,83.8064 110.5,83.5C 110.5,86.1667 110.5,88.8333 110.5,91.5C 101.5,91.5 92.5,91.5 83.5,91.5C 83.5,88.5 83.5,85.5 83.5,82.5C 80.1667,82.5 76.8333,82.5 73.5,82.5C 73.5,79.8333 73.5,77.1667 73.5,74.5 Z"/></g>
<g><path style="opacity:1" fill="#f33c11" d="M 102.5,74.5 C 105.167,74.5 107.833,74.5 110.5,74.5C 110.5,77.1667 110.5,79.8333 110.5,82.5C 107.833,82.5 105.167,82.5 102.5,82.5C 101.909,81.8485 101.243,81.1818 100.5,80.5C 102.104,78.8211 102.771,76.8211 102.5,74.5 Z"/></g>
<g><path style="opacity:1" fill="#8d7318" d="M 111.5,74.5 C 114.167,74.5 116.833,74.5 119.5,74.5C 119.5,77.1667 119.5,79.8333 119.5,82.5C 116.833,82.5 114.167,82.5 111.5,82.5C 111.5,79.8333 111.5,77.1667 111.5,74.5 Z"/></g>
<g><path style="opacity:1" fill="#cfb483" d="M 128.5,73.5 C 126.052,74.4731 123.385,74.8064 120.5,74.5C 120.5,77.5 120.5,80.5 120.5,83.5C 120.167,83.5 119.833,83.5 119.5,83.5C 119.5,83.1667 119.5,82.8333 119.5,82.5C 119.5,79.8333 119.5,77.1667 119.5,74.5C 122.287,73.5233 125.287,73.19 128.5,73.5 Z"/></g>
<g><path style="opacity:1" fill="#c55917" d="M 72.5,74.5 C 72.8333,74.5 73.1667,74.5 73.5,74.5C 73.5,77.1667 73.5,79.8333 73.5,82.5C 76.8333,82.5 80.1667,82.5 83.5,82.5C 83.5,85.5 83.5,88.5 83.5,91.5C 82.5269,89.0521 82.1936,86.3854 82.5,83.5C 79.5,83.5 76.5,83.5 73.5,83.5C 73.5,89.8333 73.5,96.1667 73.5,102.5C 70.5,102.5 67.5,102.5 64.5,102.5C 64.8064,105.385 64.4731,108.052 63.5,110.5C 63.5,107.5 63.5,104.5 63.5,101.5C 66.5,101.5 69.5,101.5 72.5,101.5C 72.5,95.5 72.5,89.5 72.5,83.5C 69.5,83.5 66.5,83.5 63.5,83.5C 63.5,80.5 63.5,77.5 63.5,74.5C 66.5,73.1667 69.5,73.1667 72.5,74.5 Z"/></g>
<g><path style="opacity:1" fill="#f63a10" d="M 72.5,74.5 C 72.5,77.1667 72.5,79.8333 72.5,82.5C 69.8333,82.5 67.1667,82.5 64.5,82.5C 64.5,79.8333 64.5,77.1667 64.5,74.5C 67.1667,74.5 69.8333,74.5 72.5,74.5 Z"/></g>
<g><path style="opacity:1" fill="#f63a11" d="M 83.5,91.5 C 92.6517,92.4936 101.985,92.8269 111.5,92.5C 111.5,89.5 111.5,86.5 111.5,83.5C 114.167,83.5 116.833,83.5 119.5,83.5C 119.5,89.8333 119.5,96.1667 119.5,102.5C 122.833,102.5 126.167,102.5 129.5,102.5C 129.804,111.584 129.471,120.584 128.5,129.5C 119.167,129.5 109.833,129.5 100.5,129.5C 100.5,132.5 100.5,135.5 100.5,138.5C 91.1667,138.5 81.8333,138.5 72.5,138.5C 72.5,141.5 72.5,144.5 72.5,147.5C 60.5,147.5 48.5,147.5 36.5,147.5C 36.5,141.833 36.5,136.167 36.5,130.5C 39.3854,130.806 42.0521,130.473 44.5,129.5C 44.5,126.5 44.5,123.5 44.5,120.5C 42.0521,119.527 39.3854,119.194 36.5,119.5C 36.5,113.833 36.5,108.167 36.5,102.5C 42.8333,102.5 49.1667,102.5 55.5,102.5C 55.5,105.167 55.5,107.833 55.5,110.5C 58.1667,110.5 60.8333,110.5 63.5,110.5C 64.4731,108.052 64.8064,105.385 64.5,102.5C 67.5,102.5 70.5,102.5 73.5,102.5C 73.5,96.1667 73.5,89.8333 73.5,83.5C 76.5,83.5 79.5,83.5 82.5,83.5C 82.1936,86.3854 82.5269,89.0521 83.5,91.5 Z"/></g>
<g><path style="opacity:1" fill="#c5bc9c" d="M 139.5,83.5 C 139.5,89.8333 139.5,96.1667 139.5,102.5C 136.5,102.5 133.5,102.5 130.5,102.5C 130.5,102.167 130.5,101.833 130.5,101.5C 133.167,101.5 135.833,101.5 138.5,101.5C 138.177,95.31 138.51,89.31 139.5,83.5 Z"/></g>
<g><path style="opacity:1" fill="#8d7218" d="M 139.5,83.5 C 142.167,83.5 144.833,83.5 147.5,83.5C 147.5,98.8333 147.5,114.167 147.5,129.5C 141.833,129.5 136.167,129.5 130.5,129.5C 130.5,120.5 130.5,111.5 130.5,102.5C 133.5,102.5 136.5,102.5 139.5,102.5C 139.5,96.1667 139.5,89.8333 139.5,83.5 Z"/></g>
<g><path style="opacity:1" fill="#b7a978" d="M 147.5,83.5 C 147.833,83.5 148.167,83.5 148.5,83.5C 148.5,99.1667 148.5,114.833 148.5,130.5C 141.833,130.5 135.167,130.5 128.5,130.5C 128.5,130.167 128.5,129.833 128.5,129.5C 129.167,129.5 129.833,129.5 130.5,129.5C 136.167,129.5 141.833,129.5 147.5,129.5C 147.5,114.167 147.5,98.8333 147.5,83.5 Z"/></g>
<g><path style="opacity:1" fill="#ca5113" d="M 110.5,74.5 C 110.833,74.5 111.167,74.5 111.5,74.5C 111.5,77.1667 111.5,79.8333 111.5,82.5C 114.167,82.5 116.833,82.5 119.5,82.5C 119.5,82.8333 119.5,83.1667 119.5,83.5C 116.833,83.5 114.167,83.5 111.5,83.5C 111.5,86.5 111.5,89.5 111.5,92.5C 101.985,92.8269 92.6517,92.4936 83.5,91.5C 92.5,91.5 101.5,91.5 110.5,91.5C 110.5,88.8333 110.5,86.1667 110.5,83.5C 107.615,83.8064 104.948,83.4731 102.5,82.5C 105.167,82.5 107.833,82.5 110.5,82.5C 110.5,79.8333 110.5,77.1667 110.5,74.5 Z"/></g>
<g><path style="opacity:1" fill="#feb662" d="M -0.5,92.5 C 2.5,92.5 5.5,92.5 8.5,92.5C 11.1667,92.5 13.8333,92.5 16.5,92.5C 16.5,95.8333 16.5,99.1667 16.5,102.5C 19.8333,102.5 23.1667,102.5 26.5,102.5C 26.5,105.167 26.5,107.833 26.5,110.5C 23.1667,110.5 19.8333,110.5 16.5,110.5C 16.5,113.5 16.5,116.5 16.5,119.5C 13.8333,119.5 11.1667,119.5 8.5,119.5C 8.5,116.5 8.5,113.5 8.5,110.5C 5.5,110.5 2.5,110.5 -0.5,110.5C -0.5,104.5 -0.5,98.5 -0.5,92.5 Z"/></g>
<g><path style="opacity:1" fill="#bd9341" d="M 8.5,92.5 C 8.5,92.1667 8.5,91.8333 8.5,91.5C 11.5,91.5 14.5,91.5 17.5,91.5C 17.5,94.8333 17.5,98.1667 17.5,101.5C 23.69,101.177 29.69,101.51 35.5,102.5C 32.8333,102.5 30.1667,102.5 27.5,102.5C 27.1667,102.5 26.8333,102.5 26.5,102.5C 23.1667,102.5 19.8333,102.5 16.5,102.5C 16.5,99.1667 16.5,95.8333 16.5,92.5C 13.8333,92.5 11.1667,92.5 8.5,92.5 Z"/></g>
<g><path style="opacity:1" fill="#feb560" d="M 83.5,102.5 C 86.1667,102.5 88.8333,102.5 91.5,102.5C 91.5,105.167 91.5,107.833 91.5,110.5C 88.8333,110.5 86.1667,110.5 83.5,110.5C 83.5,107.833 83.5,105.167 83.5,102.5 Z"/></g>
<g><path style="opacity:1" fill="#feb560" d="M 119.5,102.5 C 119.5,105.167 119.5,107.833 119.5,110.5C 116.833,110.5 114.167,110.5 111.5,110.5C 111.5,107.833 111.5,105.167 111.5,102.5C 114.167,102.5 116.833,102.5 119.5,102.5 Z"/></g>
<g><path style="opacity:1" fill="#f3cea2" d="M -0.5,111.5 C -0.5,111.167 -0.5,110.833 -0.5,110.5C 2.5,110.5 5.5,110.5 8.5,110.5C 8.5,113.5 8.5,116.5 8.5,119.5C 7.52693,117.052 7.1936,114.385 7.5,111.5C 4.83333,111.5 2.16667,111.5 -0.5,111.5 Z"/></g>
<g><path style="opacity:1" fill="#8e741a" d="M 35.5,111.5 C 35.5,114.5 35.5,117.5 35.5,120.5C 38.5,120.5 41.5,120.5 44.5,120.5C 44.5,123.5 44.5,126.5 44.5,129.5C 41.5,129.5 38.5,129.5 35.5,129.5C 35.5,132.5 35.5,135.5 35.5,138.5C 29.1667,138.5 22.8333,138.5 16.5,138.5C 16.5,141.5 16.5,144.5 16.5,147.5C 13.8333,147.5 11.1667,147.5 8.5,147.5C 8.5,141.833 8.5,136.167 8.5,130.5C 11.3854,130.806 14.0521,130.473 16.5,129.5C 17.4767,126.713 17.81,123.713 17.5,120.5C 20.3854,120.806 23.0521,120.473 25.5,119.5C 25.8333,119.5 26.1667,119.5 26.5,119.5C 27.4731,117.052 27.8064,114.385 27.5,111.5C 30.1667,111.5 32.8333,111.5 35.5,111.5 Z"/></g>
<g><path style="opacity:1" fill="#e4c394" d="M 26.5,102.5 C 26.8333,102.5 27.1667,102.5 27.5,102.5C 27.5,105.167 27.5,107.833 27.5,110.5C 30.1667,110.5 32.8333,110.5 35.5,110.5C 35.5,110.833 35.5,111.167 35.5,111.5C 32.8333,111.5 30.1667,111.5 27.5,111.5C 27.8064,114.385 27.4731,117.052 26.5,119.5C 26.5,116.833 26.5,114.167 26.5,111.5C 23.5,111.5 20.5,111.5 17.5,111.5C 17.5,114.167 17.5,116.833 17.5,119.5C 20.1667,119.5 22.8333,119.5 25.5,119.5C 23.0521,120.473 20.3854,120.806 17.5,120.5C 17.81,123.713 17.4767,126.713 16.5,129.5C 16.5,126.5 16.5,123.5 16.5,120.5C 13.6146,120.806 10.9479,120.473 8.5,119.5C 11.1667,119.5 13.8333,119.5 16.5,119.5C 16.5,116.5 16.5,113.5 16.5,110.5C 19.8333,110.5 23.1667,110.5 26.5,110.5C 26.5,107.833 26.5,105.167 26.5,102.5 Z"/></g>
<g><path style="opacity:1" fill="#c56730" d="M 35.5,102.5 C 35.8333,102.5 36.1667,102.5 36.5,102.5C 36.5,108.167 36.5,113.833 36.5,119.5C 39.3854,119.194 42.0521,119.527 44.5,120.5C 41.5,120.5 38.5,120.5 35.5,120.5C 35.5,117.5 35.5,114.5 35.5,111.5C 35.5,111.167 35.5,110.833 35.5,110.5C 35.5,107.833 35.5,105.167 35.5,102.5 Z"/></g>
<g><path style="opacity:1" fill="#bdb288" d="M 16.5,129.5 C 14.0521,130.473 11.3854,130.806 8.5,130.5C 8.5,136.167 8.5,141.833 8.5,147.5C 7.51045,141.69 7.17711,135.69 7.5,129.5C 10.5,129.5 13.5,129.5 16.5,129.5 Z"/></g>
<g><path style="opacity:1" fill="#c86732" d="M 44.5,129.5 C 42.0521,130.473 39.3854,130.806 36.5,130.5C 36.5,136.167 36.5,141.833 36.5,147.5C 35.5269,145.052 35.1936,142.385 35.5,139.5C 35.5,139.167 35.5,138.833 35.5,138.5C 35.5,135.5 35.5,132.5 35.5,129.5C 38.5,129.5 41.5,129.5 44.5,129.5 Z"/></g>
<g><path style="opacity:1" fill="#ef917b" d="M 128.5,129.5 C 128.5,129.833 128.5,130.167 128.5,130.5C 119.5,130.5 110.5,130.5 101.5,130.5C 101.806,133.385 101.473,136.052 100.5,138.5C 100.5,135.5 100.5,132.5 100.5,129.5C 109.833,129.5 119.167,129.5 128.5,129.5 Z"/></g>
<g><path style="opacity:1" fill="#baad80" d="M 35.5,138.5 C 35.5,138.833 35.5,139.167 35.5,139.5C 29.5,139.5 23.5,139.5 17.5,139.5C 17.8064,142.385 17.4731,145.052 16.5,147.5C 16.5,144.5 16.5,141.5 16.5,138.5C 22.8333,138.5 29.1667,138.5 35.5,138.5 Z"/></g>
</svg>
