<?xml version="1.0" encoding="UTF-8"?>
<!DOCTYPE svg PUBLIC "-//W3C//DTD SVG 1.1//EN" "http://www.w3.org/Graphics/SVG/1.1/DTD/svg11.dtd">
<svg xmlns="http://www.w3.org/2000/svg" version="1.1" width="103px" height="152px" style="shape-rendering:geometricPrecision; text-rendering:geometricPrecision; image-rendering:optimizeQuality; fill-rule:evenodd; clip-rule:evenodd" xmlns:xlink="http://www.w3.org/1999/xlink">
<g><path style="opacity:1" fill="#f63a10" d="M 64.5,1.5 C 64.2229,4.44753 64.5562,7.28086 65.5,10C 74.4938,10.4998 83.4938,10.6664 92.5,10.5C 92.2053,12.7354 92.5386,14.7354 93.5,16.5C 87.5,17.1667 81.5,17.8333 75.5,18.5C 75.1667,18.5 74.8333,18.5 74.5,18.5C 71.0977,18.3424 67.7644,18.6758 64.5,19.5C 61.7008,18.0744 59.0342,18.4077 56.5,20.5C 55.8333,20.5 55.5,20.1667 55.5,19.5C 49.2962,18.2299 42.9629,18.2299 36.5,19.5C 28.3501,18.5073 20.0168,18.1739 11.5,18.5C 11.5,15.8333 11.5,13.1667 11.5,10.5C 14.3854,10.8064 17.0521,10.4731 19.5,9.5C 19.5,6.83333 19.5,4.16667 19.5,1.5C 34.5,1.5 49.5,1.5 64.5,1.5 Z"/></g>
<g><path style="opacity:1" fill="#f89a65" d="M 64.5,1.5 C 66.369,3.63528 67.0356,6.30195 66.5,9.5C 75.1667,9.5 83.8333,9.5 92.5,9.5C 92.5,9.83333 92.5,10.1667 92.5,10.5C 83.4938,10.6664 74.4938,10.4998 65.5,10C 64.5562,7.28086 64.2229,4.44753 64.5,1.5 Z"/></g>
<g><path style="opacity:1" fill="#f16849" d="M 19.5,9.5 C 17.0521,10.4731 14.3854,10.8064 11.5,10.5C 11.5,13.1667 11.5,15.8333 11.5,18.5C 11.1667,18.5 10.8333,18.5 10.5,18.5C 10.5,15.5 10.5,12.5 10.5,9.5C 13.5,9.5 16.5,9.5 19.5,9.5 Z"/></g>
<g><path style="opacity:1" fill="#fab070" d="M 92.5,9.5 C 94.3435,11.2789 95.0102,13.6122 94.5,16.5C 94.1667,16.5 93.8333,16.5 93.5,16.5C 92.5386,14.7354 92.2053,12.7354 92.5,10.5C 92.5,10.1667 92.5,9.83333 92.5,9.5 Z"/></g>
<g><path style="opacity:1" fill="#f45e3d" d="M 93.5,16.5 C 93.8333,16.5 94.1667,16.5 94.5,16.5C 88.588,18.4563 82.2547,19.1229 75.5,18.5C 81.5,17.8333 87.5,17.1667 93.5,16.5 Z"/></g>
<g><path style="opacity:1" fill="#f8944a" d="M 55.5,19.5 C 49.7414,19.2143 44.0748,19.5476 38.5,20.5C 37.5084,20.6716 36.8417,20.3382 36.5,19.5C 42.9629,18.2299 49.2962,18.2299 55.5,19.5 Z"/></g>
<g><path style="opacity:1" fill="#8f731a" d="M 10.5,18.5 C 10.8333,18.5 11.1667,18.5 11.5,18.5C 20.0168,18.1739 28.3501,18.5073 36.5,19.5C 36.8417,20.3382 37.5084,20.6716 38.5,20.5C 38.8685,23.5331 38.2018,26.1998 36.5,28.5C 33.5,28.5 30.5,28.5 27.5,28.5C 27.19,31.7131 27.5233,34.7131 28.5,37.5C 37.4277,36.3967 40.0944,39.7301 36.5,47.5C 30.8333,47.5 25.1667,47.5 19.5,47.5C 19.5,41.1667 19.5,34.8333 19.5,28.5C 16.2869,28.81 13.2869,28.4767 10.5,27.5C 10.5,24.5 10.5,21.5 10.5,18.5 Z"/></g>
<g><path style="opacity:1" fill="#fdb561" d="M 55.5,19.5 C 55.5,20.1667 55.8333,20.5 56.5,20.5C 56.5,26.1667 56.5,31.8333 56.5,37.5C 59.8333,37.5 63.1667,37.5 66.5,37.5C 66.9396,41.1785 66.273,44.5118 64.5,47.5C 61.5,47.5 58.5,47.5 55.5,47.5C 55.5,50.8333 55.5,54.1667 55.5,57.5C 64.8333,57.5 74.1667,57.5 83.5,57.5C 83.5,60.1667 83.5,62.8333 83.5,65.5C 77.8333,65.5 72.1667,65.5 66.5,65.5C 66.5,68.5 66.5,71.5 66.5,74.5C 66.1667,74.5 65.8333,74.5 65.5,74.5C 65.5,71.5 65.5,68.5 65.5,65.5C 56.5,65.5 47.5,65.5 38.5,65.5C 34.8333,65.5 31.1667,65.5 27.5,65.5C 24.8333,65.5 22.1667,65.5 19.5,65.5C 19.5,62.8333 19.5,60.1667 19.5,57.5C 19.5,57.1667 19.5,56.8333 19.5,56.5C 19.5,53.8333 19.5,51.1667 19.5,48.5C 25.358,48.8222 31.0247,48.4889 36.5,47.5C 40.0944,39.7301 37.4277,36.3967 28.5,37.5C 28.5,34.8333 28.5,32.1667 28.5,29.5C 31.3854,29.8064 34.0521,29.4731 36.5,28.5C 38.2018,26.1998 38.8685,23.5331 38.5,20.5C 44.0748,19.5476 49.7414,19.2143 55.5,19.5 Z"/></g>
<g><path style="opacity:1" fill="#8f7319" d="M 64.5,19.5 C 66.3864,25.2079 67.0531,31.2079 66.5,37.5C 63.1667,37.5 59.8333,37.5 56.5,37.5C 56.5,31.8333 56.5,26.1667 56.5,20.5C 59.0342,18.4077 61.7008,18.0744 64.5,19.5 Z"/></g>
<g><path style="opacity:1" fill="#fcb561" d="M 74.5,18.5 C 74.5,22.1667 74.5,25.8333 74.5,29.5C 81.1667,29.5 87.8333,29.5 94.5,29.5C 94.5,32.1667 94.5,34.8333 94.5,37.5C 97.1667,37.5 99.8333,37.5 102.5,37.5C 102.5,40.5 102.5,43.5 102.5,46.5C 100.2,48.2018 97.5331,48.8685 94.5,48.5C 93.1794,46.5798 91.846,46.4132 90.5,48C 85.5111,48.4993 80.5111,48.6659 75.5,48.5C 75.5,44.8333 75.5,41.1667 75.5,37.5C 72.5,37.5 69.5,37.5 66.5,37.5C 67.0531,31.2079 66.3864,25.2079 64.5,19.5C 67.7644,18.6758 71.0977,18.3424 74.5,18.5 Z"/></g>
<g><path style="opacity:1" fill="#f3cc9f" d="M 74.5,18.5 C 74.8333,18.5 75.1667,18.5 75.5,18.5C 75.5,21.8333 75.5,25.1667 75.5,28.5C 82.0221,28.1765 88.3554,28.5098 94.5,29.5C 87.8333,29.5 81.1667,29.5 74.5,29.5C 74.5,25.8333 74.5,22.1667 74.5,18.5 Z"/></g>
<g><path style="opacity:1" fill="#8d7319" d="M 0.5,29.5 C 3.16667,29.5 5.83333,29.5 8.5,29.5C 10.9248,29.684 10.9248,30.3507 8.5,31.5C 8.95689,32.2975 9.62356,32.6309 10.5,32.5C 11.0128,37.085 10.3462,41.4183 8.5,45.5C 9.24269,46.1818 9.90935,46.8485 10.5,47.5C 12.9479,48.4731 15.6146,48.8064 18.5,48.5C 18.5,51.1667 18.5,53.8333 18.5,56.5C 12.5,56.5 6.5,56.5 0.5,56.5C 0.5,47.5 0.5,38.5 0.5,29.5 Z"/></g>
<g><path style="opacity:1" fill="#fbb560" d="M 10.5,47.5 C 9.90935,46.8485 9.24269,46.1818 8.5,45.5C 10.3462,41.4183 11.0128,37.085 10.5,32.5C 12.3857,29.9006 15.0524,28.9006 18.5,29.5C 18.5,35.5 18.5,41.5 18.5,47.5C 15.8333,47.5 13.1667,47.5 10.5,47.5 Z"/></g>
<g><path style="opacity:1" fill="#c99740" d="M 10.5,27.5 C 13.2869,28.4767 16.2869,28.81 19.5,28.5C 19.5,34.8333 19.5,41.1667 19.5,47.5C 25.1667,47.5 30.8333,47.5 36.5,47.5C 31.0247,48.4889 25.358,48.8222 19.5,48.5C 19.5,51.1667 19.5,53.8333 19.5,56.5C 19.1667,56.5 18.8333,56.5 18.5,56.5C 18.5,53.8333 18.5,51.1667 18.5,48.5C 15.6146,48.8064 12.9479,48.4731 10.5,47.5C 13.1667,47.5 15.8333,47.5 18.5,47.5C 18.5,41.5 18.5,35.5 18.5,29.5C 15.0524,28.9006 12.3857,29.9006 10.5,32.5C 9.62356,32.6309 8.95689,32.2975 8.5,31.5C 10.9248,30.3507 10.9248,29.684 8.5,29.5C 8.5,28.1667 9.16667,27.5 10.5,27.5 Z"/></g>
<g><path style="opacity:1" fill="#c3933b" d="M 36.5,28.5 C 34.0521,29.4731 31.3854,29.8064 28.5,29.5C 28.5,32.1667 28.5,34.8333 28.5,37.5C 27.5233,34.7131 27.19,31.7131 27.5,28.5C 30.5,28.5 33.5,28.5 36.5,28.5 Z"/></g>
<g><path style="opacity:1" fill="#90751b" d="M 66.5,37.5 C 69.5,37.5 72.5,37.5 75.5,37.5C 75.5,41.1667 75.5,44.8333 75.5,48.5C 80.5111,48.6659 85.5111,48.4993 90.5,48C 91.846,46.4132 93.1794,46.5798 94.5,48.5C 95.0356,51.6981 94.369,54.3647 92.5,56.5C 89.5,56.5 86.5,56.5 83.5,56.5C 74.5,56.5 65.5,56.5 56.5,56.5C 56.5,53.8333 56.5,51.1667 56.5,48.5C 59.3854,48.8064 62.0521,48.4731 64.5,47.5C 66.273,44.5118 66.9396,41.1785 66.5,37.5 Z"/></g>
<g><path style="opacity:1" fill="#b9ac7d" d="M -0.5,29.5 C -0.166667,29.5 0.166667,29.5 0.5,29.5C 0.5,38.5 0.5,47.5 0.5,56.5C 6.5,56.5 12.5,56.5 18.5,56.5C 18.8333,56.5 19.1667,56.5 19.5,56.5C 19.5,56.8333 19.5,57.1667 19.5,57.5C 12.8333,57.5 6.16667,57.5 -0.5,57.5C -0.5,48.1667 -0.5,38.8333 -0.5,29.5 Z"/></g>
<g><path style="opacity:1" fill="#c6953d" d="M 64.5,47.5 C 62.0521,48.4731 59.3854,48.8064 56.5,48.5C 56.5,51.1667 56.5,53.8333 56.5,56.5C 65.5,56.5 74.5,56.5 83.5,56.5C 83.5,56.8333 83.5,57.1667 83.5,57.5C 74.1667,57.5 64.8333,57.5 55.5,57.5C 55.5,54.1667 55.5,50.8333 55.5,47.5C 58.5,47.5 61.5,47.5 64.5,47.5 Z"/></g>
<g><path style="opacity:1" fill="#dec295" d="M 83.5,56.5 C 86.5,56.5 89.5,56.5 92.5,56.5C 90.0521,57.4731 87.3854,57.8064 84.5,57.5C 84.8064,60.3854 84.4731,63.0521 83.5,65.5C 83.5,62.8333 83.5,60.1667 83.5,57.5C 83.5,57.1667 83.5,56.8333 83.5,56.5 Z"/></g>
<g><path style="opacity:1" fill="#bd8f38" d="M 38.5,66.5 C 38.5,66.1667 38.5,65.8333 38.5,65.5C 47.5,65.5 56.5,65.5 65.5,65.5C 65.5,68.5 65.5,71.5 65.5,74.5C 64.5269,72.0521 64.1936,69.3854 64.5,66.5C 56.1667,66.5 47.8333,66.5 39.5,66.5C 39.1667,66.5 38.8333,66.5 38.5,66.5 Z"/></g>
<g><path style="opacity:1" fill="#a4924f" d="M 10.5,65.5 C 13.5,65.5 16.5,65.5 19.5,65.5C 17.0521,66.4731 14.3854,66.8064 11.5,66.5C 11.8064,69.3854 11.4731,72.0521 10.5,74.5C 10.5,71.5 10.5,68.5 10.5,65.5 Z"/></g>
<g><path style="opacity:1" fill="#8d7318" d="M 19.5,65.5 C 22.1667,65.5 24.8333,65.5 27.5,65.5C 27.19,68.7131 27.5233,71.7131 28.5,74.5C 29.1667,74.5 29.5,74.8333 29.5,75.5C 32.2869,76.4767 35.2869,76.81 38.5,76.5C 38.5,79.1667 38.5,81.8333 38.5,84.5C 34.8333,84.5 31.1667,84.5 27.5,84.5C 27.5,87.8333 27.5,91.1667 27.5,94.5C 30.5,94.5 33.5,94.5 36.5,94.5C 38.273,97.4882 38.9396,100.821 38.5,104.5C 34.8333,104.5 31.1667,104.5 27.5,104.5C 27.5,110.167 27.5,115.833 27.5,121.5C 24.8333,121.5 22.1667,121.5 19.5,121.5C 19.5,118.5 19.5,115.5 19.5,112.5C 16.1667,112.5 12.8333,112.5 9.5,112.5C 9.5,110.5 9.5,108.5 9.5,106.5C 9.61071,105.883 9.94404,105.383 10.5,105C 7.18323,104.502 3.8499,104.335 0.5,104.5C 0.5,95.1667 0.5,85.8333 0.5,76.5C 3.51838,76.6646 6.51838,76.498 9.5,76C 10.056,75.6174 10.3893,75.1174 10.5,74.5C 11.4731,72.0521 11.8064,69.3854 11.5,66.5C 14.3854,66.8064 17.0521,66.4731 19.5,65.5 Z"/></g>
<g><path style="opacity:1" fill="#f63910" d="M 29.5,75.5 C 29.5,74.8333 29.1667,74.5 28.5,74.5C 28.5,71.8333 28.5,69.1667 28.5,66.5C 31.5,66.5 34.5,66.5 37.5,66.5C 37.5,69.5 37.5,72.5 37.5,75.5C 34.8333,75.5 32.1667,75.5 29.5,75.5 Z"/></g>
<g><path style="opacity:1" fill="#dc5319" d="M 27.5,65.5 C 31.1667,65.5 34.8333,65.5 38.5,65.5C 38.5,65.8333 38.5,66.1667 38.5,66.5C 38.5,69.8333 38.5,73.1667 38.5,76.5C 35.2869,76.81 32.2869,76.4767 29.5,75.5C 32.1667,75.5 34.8333,75.5 37.5,75.5C 37.5,72.5 37.5,69.5 37.5,66.5C 34.5,66.5 31.5,66.5 28.5,66.5C 28.5,69.1667 28.5,71.8333 28.5,74.5C 27.5233,71.7131 27.19,68.7131 27.5,65.5 Z"/></g>
<g><path style="opacity:1" fill="#8d741a" d="M 39.5,66.5 C 47.8333,66.5 56.1667,66.5 64.5,66.5C 64.1936,69.3854 64.5269,72.0521 65.5,74.5C 65.8333,74.5 66.1667,74.5 66.5,74.5C 68.9878,76.3878 71.9878,77.0545 75.5,76.5C 75.5,79.1667 75.5,81.8333 75.5,84.5C 69.1667,84.5 62.8333,84.5 56.5,84.5C 56.5,81.8333 56.5,79.1667 56.5,76.5C 51.0247,75.5111 45.358,75.1778 39.5,75.5C 39.5,72.5 39.5,69.5 39.5,66.5 Z"/></g>
<g><path style="opacity:1" fill="#cfc1a1" d="M 10.5,65.5 C 10.5,68.5 10.5,71.5 10.5,74.5C 10.3893,75.1174 10.056,75.6174 9.5,76C 6.51838,76.498 3.51838,76.6646 0.5,76.5C 3.2281,75.7948 6.06143,75.1281 9,74.5C 9.18052,71.3054 9.68052,68.3054 10.5,65.5 Z"/></g>
<g><path style="opacity:1" fill="#ac6115" d="M 38.5,66.5 C 38.8333,66.5 39.1667,66.5 39.5,66.5C 39.5,69.5 39.5,72.5 39.5,75.5C 45.358,75.1778 51.0247,75.5111 56.5,76.5C 56.1667,76.5 55.8333,76.5 55.5,76.5C 49.8333,76.5 44.1667,76.5 38.5,76.5C 38.5,73.1667 38.5,69.8333 38.5,66.5 Z"/></g>
<g><path style="opacity:1" fill="#f63d13" d="M 38.5,76.5 C 44.1667,76.5 49.8333,76.5 55.5,76.5C 55.5,79.1667 55.5,81.8333 55.5,84.5C 52.6146,84.1936 49.9479,84.5269 47.5,85.5C 47.5,88.1667 47.5,90.8333 47.5,93.5C 50.1667,93.5 52.8333,93.5 55.5,93.5C 56.4731,91.0521 56.8064,88.3854 56.5,85.5C 62.5,85.5 68.5,85.5 74.5,85.5C 74.1936,88.3854 74.5269,91.0521 75.5,93.5C 78.1667,93.5 80.8333,93.5 83.5,93.5C 83.5,100.167 83.5,106.833 83.5,113.5C 80.8333,113.5 78.1667,113.5 75.5,113.5C 75.5,116.167 75.5,118.833 75.5,121.5C 75.1667,121.5 74.8333,121.5 74.5,121.5C 65.5,121.5 56.5,121.5 47.5,121.5C 47.5,118.5 47.5,115.5 47.5,112.5C 50.1667,112.5 52.8333,112.5 55.5,112.5C 55.5,109.833 55.5,107.167 55.5,104.5C 49.8333,104.5 44.1667,104.5 38.5,104.5C 38.9396,100.821 38.273,97.4882 36.5,94.5C 34.0521,93.5269 31.3854,93.1936 28.5,93.5C 28.5,90.8333 28.5,88.1667 28.5,85.5C 32.0419,85.8128 35.3752,85.4794 38.5,84.5C 38.5,81.8333 38.5,79.1667 38.5,76.5 Z"/></g>
<g><path style="opacity:1" fill="#d76222" d="M 55.5,76.5 C 55.8333,76.5 56.1667,76.5 56.5,76.5C 56.5,79.1667 56.5,81.8333 56.5,84.5C 62.8333,84.5 69.1667,84.5 75.5,84.5C 75.5,84.8333 75.5,85.1667 75.5,85.5C 75.5,88.1667 75.5,90.8333 75.5,93.5C 74.5269,91.0521 74.1936,88.3854 74.5,85.5C 68.5,85.5 62.5,85.5 56.5,85.5C 56.8064,88.3854 56.4731,91.0521 55.5,93.5C 52.8333,93.5 50.1667,93.5 47.5,93.5C 47.5,90.8333 47.5,88.1667 47.5,85.5C 49.9479,84.5269 52.6146,84.1936 55.5,84.5C 55.5,81.8333 55.5,79.1667 55.5,76.5 Z"/></g>
<g><path style="opacity:1" fill="#bc5814" d="M 38.5,84.5 C 35.3752,85.4794 32.0419,85.8128 28.5,85.5C 28.5,88.1667 28.5,90.8333 28.5,93.5C 31.3854,93.1936 34.0521,93.5269 36.5,94.5C 33.5,94.5 30.5,94.5 27.5,94.5C 27.5,91.1667 27.5,87.8333 27.5,84.5C 31.1667,84.5 34.8333,84.5 38.5,84.5 Z"/></g>
<g><path style="opacity:1" fill="#feb560" d="M 47.5,85.5 C 50.1667,85.5 52.8333,85.5 55.5,85.5C 55.5,88.1667 55.5,90.8333 55.5,93.5C 55.5,90.8333 55.5,88.1667 55.5,85.5C 52.8333,85.5 50.1667,85.5 47.5,85.5 Z"/></g>
<g><path style="opacity:1" fill="#feb560" d="M 75.5,85.5 C 78.1667,85.5 80.8333,85.5 83.5,85.5C 83.5,88.1667 83.5,90.8333 83.5,93.5C 80.8333,93.5 78.1667,93.5 75.5,93.5C 75.5,90.8333 75.5,88.1667 75.5,85.5 Z"/></g>
<g><path style="opacity:1" fill="#f43a10" d="M 0.5,104.5 C 3.8499,104.335 7.18323,104.502 10.5,105C 9.94404,105.383 9.61071,105.883 9.5,106.5C 8.53862,108.265 8.20528,110.265 8.5,112.5C 5.83333,112.5 3.16667,112.5 0.5,112.5C 0.5,109.833 0.5,107.167 0.5,104.5 Z"/></g>
<g><path style="opacity:1" fill="#fcb45f" d="M 38.5,104.5 C 44.1667,104.5 49.8333,104.5 55.5,104.5C 55.5,107.167 55.5,109.833 55.5,112.5C 52.8333,112.5 50.1667,112.5 47.5,112.5C 47.5,115.5 47.5,118.5 47.5,121.5C 40.8333,121.5 34.1667,121.5 27.5,121.5C 27.5,115.833 27.5,110.167 27.5,104.5C 31.1667,104.5 34.8333,104.5 38.5,104.5 Z"/></g>
<g><path style="opacity:1" fill="#ca642c" d="M 9.5,106.5 C 9.5,108.5 9.5,110.5 9.5,112.5C 12.8333,112.5 16.1667,112.5 19.5,112.5C 19.5,115.5 19.5,118.5 19.5,121.5C 19.1667,121.5 18.8333,121.5 18.5,121.5C 18.5,118.833 18.5,116.167 18.5,113.5C 15.6146,113.194 12.9479,113.527 10.5,114.5C 9.83333,114.167 9.16667,113.833 8.5,113.5C 5.61456,113.806 2.9479,113.473 0.5,112.5C 3.16667,112.5 5.83333,112.5 8.5,112.5C 8.20528,110.265 8.53862,108.265 9.5,106.5 Z"/></g>
<g><path style="opacity:1" fill="#f63f17" d="M 18.5,121.5 C 15.8333,121.5 13.1667,121.5 10.5,121.5C 9.83333,121.5 9.5,121.167 9.5,120.5C 10.4614,118.735 10.7947,116.735 10.5,114.5C 12.9479,113.527 15.6146,113.194 18.5,113.5C 18.5,116.167 18.5,118.833 18.5,121.5 Z"/></g>
<g><path style="opacity:1" fill="#edc1ad" d="M 8.5,113.5 C 9.16667,113.833 9.83333,114.167 10.5,114.5C 10.7947,116.735 10.4614,118.735 9.5,120.5C 9.55195,118.097 9.21862,115.764 8.5,113.5 Z"/></g>
<g><path style="opacity:1" fill="#eba797" d="M 10.5,121.5 C 13.1667,121.5 15.8333,121.5 18.5,121.5C 18.8333,121.5 19.1667,121.5 19.5,121.5C 19.5,121.833 19.5,122.167 19.5,122.5C 19.5,125.5 19.5,128.5 19.5,131.5C 19.5,131.833 19.5,132.167 19.5,132.5C 18.5206,129.375 18.1872,126.042 18.5,122.5C 15.6146,122.806 12.9479,122.473 10.5,121.5 Z"/></g>
<g><path style="opacity:1" fill="#f63910" d="M 19.5,122.5 C 28.5,122.5 37.5,122.5 46.5,122.5C 46.5,125.5 46.5,128.5 46.5,131.5C 37.5,131.5 28.5,131.5 19.5,131.5C 19.5,128.5 19.5,125.5 19.5,122.5 Z"/></g>
<g><path style="opacity:1" fill="#8c7319" d="M 74.5,121.5 C 74.8333,121.5 75.1667,121.5 75.5,121.5C 75.5,125.167 75.5,128.833 75.5,132.5C 78.1667,132.5 80.8333,132.5 83.5,132.5C 83.5,135.167 83.5,137.833 83.5,140.5C 74.3178,140.173 65.3178,140.507 56.5,141.5C 55.5269,143.948 55.1936,146.615 55.5,149.5C 43.5,149.5 31.5,149.5 19.5,149.5C 19.5,143.833 19.5,138.167 19.5,132.5C 28.8333,132.5 38.1667,132.5 47.5,132.5C 47.5,129.167 47.5,125.833 47.5,122.5C 56.6822,122.827 65.6822,122.493 74.5,121.5 Z"/></g>
<g><path style="opacity:1" fill="#d25619" d="M 19.5,122.5 C 19.5,122.167 19.5,121.833 19.5,121.5C 22.1667,121.5 24.8333,121.5 27.5,121.5C 34.1667,121.5 40.8333,121.5 47.5,121.5C 56.5,121.5 65.5,121.5 74.5,121.5C 65.6822,122.493 56.6822,122.827 47.5,122.5C 47.5,125.833 47.5,129.167 47.5,132.5C 38.1667,132.5 28.8333,132.5 19.5,132.5C 19.5,132.167 19.5,131.833 19.5,131.5C 28.5,131.5 37.5,131.5 46.5,131.5C 46.5,128.5 46.5,125.5 46.5,122.5C 37.5,122.5 28.5,122.5 19.5,122.5 Z"/></g>
<g><path style="opacity:1" fill="#b7ab7c" d="M 83.5,132.5 C 84.4767,135.287 84.81,138.287 84.5,141.5C 75.1667,141.5 65.8333,141.5 56.5,141.5C 65.3178,140.507 74.3178,140.173 83.5,140.5C 83.5,137.833 83.5,135.167 83.5,132.5 Z"/></g>
</svg>
